<?xml version="1.0" encoding="utf-8"?>
<!-- Generator: Adobe Illustrator 26.2.1, SVG Export Plug-In . SVG Version: 6.00 Build 0)  -->
<svg version="1.1" id="Layer_1" xmlns="http://www.w3.org/2000/svg" xmlns:xlink="http://www.w3.org/1999/xlink" x="0px" y="0px"
	 viewBox="0 0 79.4 79.5" style="enable-background:new 0 0 79.4 79.5;" xml:space="preserve">
<style type="text/css">
	.st0{fill:#2A3B89;}
</style>
<g>
	<g>
		<path class="st0" d="M-360.7,71c-17.2,0-31.2-14-31.2-31.2s14-31.2,31.2-31.2s31.2,14,31.2,31.2S-343.5,71-360.7,71z M-360.7,14.6
			c-13.9,0-25.2,11.3-25.2,25.2c0,13.9,11.3,25.2,25.2,25.2c13.9,0,25.2-11.3,25.2-25.2C-335.5,25.9-346.8,14.6-360.7,14.6z"/>
	</g>
	<g>
		
			<rect x="-362.9" y="10.8" transform="matrix(0.7071 -0.7071 0.7071 0.7071 -132.9755 -243.1033)" class="st0" width="6" height="56.3"/>
	</g>
</g>
<g>
	<g>
		<path class="st0" d="M490.7,71.9c-17.2,0-31.2-14-31.2-31.2s14-31.2,31.2-31.2c17.2,0,31.2,14,31.2,31.2h-6
			c0-13.9-11.3-25.2-25.2-25.2s-25.2,11.3-25.2,25.2c0,13.9,11.3,25.2,25.2,25.2V71.9z"/>
	</g>
	<g>
		<polygon class="st0" points="519.2,47.3 508.4,36.5 512.7,32.3 519.2,38.9 525.2,32.9 529.5,37.1 		"/>
	</g>
	<g>
		<path class="st0" d="M479.6,39.2h2.4c0.9,0,1.6-0.3,2-1c0.4-0.6,0.6-1.5,0.6-2.5c0-1-0.2-1.8-0.7-2.4c-0.4-0.6-1-0.8-1.8-0.8
			c-0.7,0-1.2,0.3-1.7,0.8c-0.4,0.5-0.7,1.2-0.7,2H475c0-1.3,0.3-2.5,0.9-3.6c0.6-1.1,1.5-1.9,2.6-2.5c1.1-0.6,2.3-0.9,3.7-0.9
			c2.3,0,4.2,0.6,5.5,1.9c1.3,1.3,2,3.1,2,5.3c0,1.2-0.3,2.2-0.9,3.2c-0.6,1-1.4,1.7-2.4,2.3c1.2,0.5,2.1,1.3,2.7,2.3
			c0.6,1,0.9,2.2,0.9,3.6c0,2.3-0.7,4.1-2.2,5.4c-1.4,1.4-3.3,2-5.7,2c-2.2,0-3.9-0.7-5.3-2s-2-3.1-2-5.3h4.9c0,0.9,0.2,1.7,0.7,2.3
			c0.5,0.6,1.1,0.9,1.8,0.9c0.8,0,1.5-0.3,2-0.9c0.5-0.6,0.7-1.5,0.7-2.5c0-2.5-1-3.8-2.9-3.8h-2.4V39.2z"/>
		<path class="st0" d="M506.3,43.7c0,3.5-0.6,6.2-1.9,8.1s-3.1,2.8-5.5,2.8c-2.3,0-4.1-0.9-5.4-2.7c-1.3-1.8-1.9-4.4-2-7.8v-4.8
			c0-3.5,0.6-6.2,1.9-8c1.3-1.9,3.1-2.8,5.5-2.8c2.4,0,4.2,0.9,5.5,2.8c1.3,1.8,1.9,4.5,1.9,7.9V43.7z M501.3,38.5
			c0-2-0.2-3.5-0.6-4.5c-0.4-1-1-1.5-1.9-1.5c-1.6,0-2.4,1.8-2.4,5.5v6.3c0,2,0.2,3.6,0.6,4.6s1,1.5,1.9,1.5c0.8,0,1.4-0.5,1.8-1.4
			s0.6-2.4,0.6-4.3V38.5z"/>
	</g>
</g>
<g>
	<g>
		<path class="st0" d="M-279.9,70.9l-0.8-0.2c-28.3-7.5-27.8-33.6-27.6-35.8V8.6h56.8v26.2c0.1,2.3,0.6,28.3-27.6,35.8L-279.9,70.9z
			 M-302.3,14.6l0,20.5c-0.1,0.9-1.3,22.7,22.4,29.5c23.9-6.8,22.5-28.6,22.4-29.5l0-0.2V14.6H-302.3z"/>
	</g>
	<g>
		<polygon class="st0" points="-285,50.7 -298.5,37.2 -294.3,33 -285,42.2 -265.6,22.8 -261.3,27.1 		"/>
	</g>
</g>
<g>
	<g>
		<path class="st0" d="M41.2,59.1L39.5,59c-11.4-0.6-21.8-7.2-27-17.4C7.2,31.5,7.8,19.2,14,9.6l0.9-1.5l1.7,0.1
			c11.4,0.6,21.8,7.2,27,17.4l0,0c5.2,10.2,4.7,22.4-1.5,32.1L41.2,59.1z M18.1,14.3c-4.2,7.6-4.3,16.8-0.3,24.6s11.6,13,20.2,14
			c4.2-7.6,4.3-16.8,0.3-24.6v0C34.3,20.6,26.7,15.3,18.1,14.3z"/>
	</g>
	<g>
		<path class="st0" d="M38.2,59.1l-0.9-1.5c-6.2-9.6-6.8-21.9-1.5-32.1C41,15.4,51.3,8.7,62.7,8.2l1.7-0.1l0.9,1.5
			c6.2,9.6,6.8,21.9,1.5,32.1c-5.2,10.2-15.6,16.8-27,17.4L38.2,59.1z M61.3,14.3c-8.6,1-16.2,6.2-20.2,14v0c-4,7.7-3.8,17,0.3,24.6
			c8.6-1,16.2-6.2,20.2-14S65.4,21.9,61.3,14.3z"/>
	</g>
	<g>
		<rect x="35.8" y="56" class="st0" width="6" height="15.4"/>
	</g>
</g>
<g>
	<g>
		
			<rect x="-207.7" y="-0.6" transform="matrix(0.7071 -0.7071 0.7071 0.7071 -90.0572 -132.2769)" class="st0" width="6" height="86.3"/>
	</g>
	<g>
		<path class="st0" d="M-204.7,75.4c-14.2,0-25.7-11.5-25.7-25.7c0-5.2,1.6-10.2,4.5-14.5l21.1-31l15.5,22.7c0.5,0.7,1,1.4,1.5,2.1
			c1.5,2.2,3,4.4,4.4,6.7l0,0c2.9,5,4.3,9.5,4.3,14C-179,63.8-190.6,75.4-204.7,75.4z M-204.7,14.8l-16.2,23.7
			c-2.3,3.3-3.5,7.1-3.5,11.1c0,10.8,8.8,19.7,19.7,19.7c10.8,0,19.7-8.8,19.7-19.7c0-3.5-1.1-6.8-3.5-11l0,0
			c-1.2-2.1-2.7-4.3-4.2-6.3c-0.5-0.7-1-1.4-1.5-2.2L-204.7,14.8z"/>
	</g>
</g>
</svg>
