<?xml version="1.0" encoding="utf-8"?>
<!-- Generator: Adobe Illustrator 26.2.1, SVG Export Plug-In . SVG Version: 6.00 Build 0)  -->
<svg version="1.1" id="Layer_1" xmlns="http://www.w3.org/2000/svg" xmlns:xlink="http://www.w3.org/1999/xlink" x="0px" y="0px"
	 viewBox="0 0 79.4 79.5" style="enable-background:new 0 0 79.4 79.5;" xml:space="preserve">
<style type="text/css">
	.st0{fill:#2A3B89;}
</style>
<g>
	<g>
		<path class="st0" d="M39.7,71C22.5,71,8.5,57,8.5,39.8s14-31.2,31.2-31.2s31.2,14,31.2,31.2S56.9,71,39.7,71z M39.7,14.6
			c-13.9,0-25.2,11.3-25.2,25.2C14.5,53.7,25.8,65,39.7,65c13.9,0,25.2-11.3,25.2-25.2C64.9,25.9,53.6,14.6,39.7,14.6z"/>
	</g>
	<g>
		
			<rect x="37.5" y="10.8" transform="matrix(0.7071 -0.7071 0.7071 0.7071 -15.7008 40.0252)" class="st0" width="6" height="56.3"/>
	</g>
</g>
<g>
	<g>
		<path class="st0" d="M1210.2,71.9c-17.2,0-31.2-14-31.2-31.2s14-31.2,31.2-31.2c17.2,0,31.2,14,31.2,31.2h-6
			c0-13.9-11.3-25.2-25.2-25.2S1185,26.8,1185,40.7c0,13.9,11.3,25.2,25.2,25.2V71.9z"/>
	</g>
	<g>
		<polygon class="st0" points="1238.7,47.3 1227.9,36.5 1232.1,32.3 1238.7,38.9 1244.6,32.9 1248.9,37.1 		"/>
	</g>
	<g>
		<path class="st0" d="M1199.1,39.2h2.4c0.9,0,1.6-0.3,2-1c0.4-0.6,0.6-1.5,0.6-2.5c0-1-0.2-1.8-0.7-2.4c-0.4-0.6-1-0.8-1.8-0.8
			c-0.7,0-1.2,0.3-1.7,0.8c-0.4,0.5-0.7,1.2-0.7,2h-4.9c0-1.3,0.3-2.5,0.9-3.6c0.6-1.1,1.5-1.9,2.6-2.5c1.1-0.6,2.3-0.9,3.7-0.9
			c2.3,0,4.2,0.6,5.5,1.9c1.3,1.3,2,3.1,2,5.3c0,1.2-0.3,2.2-0.9,3.2c-0.6,1-1.4,1.7-2.4,2.3c1.2,0.5,2.1,1.3,2.7,2.3
			c0.6,1,0.9,2.2,0.9,3.6c0,2.3-0.7,4.1-2.2,5.4c-1.4,1.4-3.3,2-5.7,2c-2.2,0-3.9-0.7-5.3-2s-2-3.1-2-5.3h4.9c0,0.9,0.2,1.7,0.7,2.3
			c0.5,0.6,1.1,0.9,1.8,0.9c0.8,0,1.5-0.3,2-0.9c0.5-0.6,0.7-1.5,0.7-2.5c0-2.5-1-3.8-2.9-3.8h-2.4V39.2z"/>
		<path class="st0" d="M1225.7,43.7c0,3.5-0.6,6.2-1.9,8.1s-3.1,2.8-5.5,2.8c-2.3,0-4.1-0.9-5.4-2.7c-1.3-1.8-1.9-4.4-2-7.8v-4.8
			c0-3.5,0.6-6.2,1.9-8c1.3-1.9,3.1-2.8,5.5-2.8c2.4,0,4.2,0.9,5.5,2.8c1.3,1.8,1.9,4.5,1.9,7.9V43.7z M1220.8,38.5
			c0-2-0.2-3.5-0.6-4.5c-0.4-1-1-1.5-1.9-1.5c-1.6,0-2.4,1.8-2.4,5.5v6.3c0,2,0.2,3.6,0.6,4.6s1,1.5,1.9,1.5c0.8,0,1.4-0.5,1.8-1.4
			s0.6-2.4,0.6-4.3V38.5z"/>
	</g>
</g>
<g>
	<g>
		<path class="st0" d="M333.6,72l-0.8-0.2c-28.3-7.5-27.8-33.6-27.6-35.8V9.7H362V36c0.1,2.3,0.6,28.3-27.6,35.8L333.6,72z
			 M311.2,15.7l0,20.5c-0.1,0.9-1.3,22.7,22.4,29.5c23.9-6.8,22.5-28.6,22.4-29.5l0-0.2V15.7H311.2z"/>
	</g>
	<g>
		<polygon class="st0" points="328.5,51.8 315,38.3 319.2,34.1 328.5,43.3 347.9,23.9 352.2,28.2 		"/>
	</g>
</g>
<g>
	<g>
		<path class="st0" d="M922.3,56.6l-1.7-0.1c-11.4-0.6-21.8-7.2-27-17.4c-5.2-10.2-4.7-22.4,1.5-32.1l0.9-1.5l1.7,0.1
			c11.4,0.6,21.8,7.2,27,17.4l0,0c5.2,10.2,4.7,22.4-1.5,32.1L922.3,56.6z M899.2,11.8c-4.2,7.6-4.3,16.8-0.3,24.6s11.6,13,20.2,14
			c4.2-7.6,4.3-16.8,0.3-24.6v0C915.4,18.1,907.8,12.8,899.2,11.8z"/>
	</g>
	<g>
		<path class="st0" d="M919.3,56.6l-0.9-1.5c-6.2-9.6-6.8-21.9-1.5-32.1c5.2-10.2,15.6-16.8,27-17.4l1.7-0.1l0.9,1.5
			c6.2,9.6,6.8,21.9,1.5,32.1c-5.2,10.2-15.6,16.8-27,17.4L919.3,56.6z M942.4,11.8c-8.6,1-16.2,6.2-20.2,14v0
			c-4,7.7-3.8,17,0.3,24.6c8.6-1,16.2-6.2,20.2-14S946.5,19.4,942.4,11.8z"/>
	</g>
	<g>
		<rect x="916.9" y="53.5" class="st0" width="6" height="15.4"/>
	</g>
</g>
<g>
	<g>
		
			<rect x="624.2" y="-4.7" transform="matrix(0.7071 -0.7071 0.7071 0.7071 156.532 454.7354)" class="st0" width="6" height="86.3"/>
	</g>
	<g>
		<path class="st0" d="M627.2,71.2c-14.2,0-25.7-11.5-25.7-25.7c0-5.2,1.6-10.2,4.5-14.5l21.1-31l15.5,22.7c0.5,0.7,1,1.4,1.5,2.1
			c1.5,2.2,3,4.4,4.4,6.7l0,0c2.9,5,4.3,9.5,4.3,14C652.8,59.7,641.3,71.2,627.2,71.2z M627.2,10.6L611,34.4
			c-2.3,3.3-3.5,7.1-3.5,11.1c0,10.8,8.8,19.7,19.7,19.7c10.8,0,19.7-8.8,19.7-19.7c0-3.5-1.1-6.8-3.5-11l0,0
			c-1.2-2.1-2.7-4.3-4.2-6.3c-0.5-0.7-1-1.4-1.5-2.2L627.2,10.6z"/>
	</g>
</g>
</svg>
